<?xml version="1.0" encoding="UTF-8"?>
<svg xmlns="http://www.w3.org/2000/svg" xmlns:xlink="http://www.w3.org/1999/xlink" width="44px" height="44px" viewBox="0 0 44 44" version="1.1">
<g id="surface1">
<path style=" stroke:none;fill-rule:nonzero;fill:rgb(0%,47.843137%,72.54902%);fill-opacity:1;" d="M 44 22 C 44 34.148438 34.148438 44 22 44 C 9.851562 44 0 34.148438 0 22 C 0 9.847656 9.851562 0 22 0 C 34.148438 0 44 9.847656 44 22 Z M 44 22 "/>
<path style=" stroke:none;fill-rule:nonzero;fill:rgb(94.509804%,94.901961%,94.901961%);fill-opacity:1;" d="M 35.144531 23.769531 L 35.144531 32.839844 L 29.886719 32.839844 L 29.886719 24.378906 C 29.886719 22.253906 29.125 20.800781 27.222656 20.800781 C 25.769531 20.800781 24.90625 21.777344 24.527344 22.726562 C 24.386719 23.0625 24.351562 23.53125 24.351562 24.007812 L 24.351562 32.839844 L 19.09375 32.839844 C 19.09375 32.839844 19.164062 18.507812 19.09375 17.023438 L 24.351562 17.023438 L 24.351562 19.265625 C 24.339844 19.28125 24.328125 19.300781 24.316406 19.316406 L 24.351562 19.316406 L 24.351562 19.265625 C 25.050781 18.191406 26.296875 16.652344 29.089844 16.652344 C 32.550781 16.652344 35.144531 18.914062 35.144531 23.769531 Z M 13.589844 9.398438 C 11.792969 9.398438 10.617188 10.582031 10.617188 12.132812 C 10.617188 13.652344 11.757812 14.867188 13.523438 14.867188 L 13.554688 14.867188 C 15.390625 14.867188 16.53125 13.652344 16.53125 12.132812 C 16.496094 10.582031 15.390625 9.398438 13.589844 9.398438 Z M 10.929688 32.839844 L 16.183594 32.839844 L 16.183594 17.023438 L 10.929688 17.023438 Z M 10.929688 32.839844 "/>
</g>
</svg>
